HIERARCHY
ROOT Hips
{
	OFFSET -0.001795 -0.223333 0.028219
	CHANNELS 6 Xposition Yposition Zposition Zrotation Yrotation Xrotation 
	JOINT LeftUpLeg
	{
		OFFSET 0.069520 -0.091406 -0.006815
		CHANNELS 3 Zrotation Yrotation Xrotation
		JOINT LeftLeg
		{
			OFFSET 0.034277 -0.375199 -0.004496
			CHANNELS 3 Zrotation Yrotation Xrotation
			JOINT LeftFoot
			{
				OFFSET -0.013596 -0.397961 -0.043693
				CHANNELS 3 Zrotation Yrotation Xrotation
				JOINT LeftToe
				{
					OFFSET 0.026358 -0.055791 0.119288
					CHANNELS 3 Zrotation Yrotation Xrotation
					End Site
					{
						OFFSET 0.000000 0.000000 0.000000
					}
				}
			}
		}
	}
	JOINT RightUpLeg
	{
		OFFSET -0.067670 -0.090522 -0.004320
		CHANNELS 3 Zrotation Yrotation Xrotation
		JOINT RightLeg
		{
			OFFSET -0.038290 -0.382569 -0.008850
			CHANNELS 3 Zrotation Yrotation Xrotation
			JOINT RightFoot
			{
				OFFSET 0.015774 -0.398415 -0.042312
				CHANNELS 3 Zrotation Yrotation Xrotation
				JOINT RightToe
				{
					OFFSET -0.025372 -0.048144 0.123348
					CHANNELS 3 Zrotation Yrotation Xrotation
					End Site
					{
						OFFSET 0.000000 0.000000 0.000000
					}
				}
			}
		}
	}
	JOINT Spine
	{
		OFFSET -0.002533 0.108963 -0.026696
		CHANNELS 3 Zrotation Yrotation Xrotation
		JOINT Spine1
		{
			OFFSET 0.005487 0.135180 0.001092
			CHANNELS 3 Zrotation Yrotation Xrotation
			JOINT Spine2
			{
				OFFSET 0.001457 0.052922 0.025425
				CHANNELS 3 Zrotation Yrotation Xrotation
				JOINT Neck
				{
					OFFSET -0.002778 0.213870 -0.042857
					CHANNELS 3 Zrotation Yrotation Xrotation
					JOINT Head
					{
						OFFSET 0.005152 0.064970 0.051349
						CHANNELS 3 Zrotation Yrotation Xrotation
						End Site
						{
							OFFSET 0.000000 0.000000 0.000000
						}
					}
				}
				JOINT LeftShoulder
				{
					OFFSET 0.078845 0.121749 -0.034090
					CHANNELS 3 Zrotation Yrotation Xrotation
					JOINT LeftArm
					{
						OFFSET 0.090977 0.030469 -0.008868
						CHANNELS 3 Zrotation Yrotation Xrotation
						JOINT LeftForeArm
						{
							OFFSET 0.259612 -0.012772 -0.027456
							CHANNELS 3 Zrotation Yrotation Xrotation
							JOINT LeftHand
							{
								OFFSET 0.249234 0.008986 -0.001171
								CHANNELS 3 Zrotation Yrotation Xrotation
								End Site
								{
									OFFSET 0.000000 0.000000 0.000000
								}
							}
						}
					}
				}
				JOINT RightShoulder
				{
					OFFSET -0.081759 0.118833 -0.038615
					CHANNELS 3 Zrotation Yrotation Xrotation
					JOINT RightArm
					{
						OFFSET -0.096012 0.032551 -0.009143
						CHANNELS 3 Zrotation Yrotation Xrotation
						JOINT RightForeArm
						{
							OFFSET -0.253742 -0.013329 -0.021401
							CHANNELS 3 Zrotation Yrotation Xrotation
							JOINT RightHand
							{
								OFFSET -0.255298 0.007772 -0.005559
								CHANNELS 3 Zrotation Yrotation Xrotation
								End Site
								{
									OFFSET 0.000000 0.000000 0.000000
								}
							}
						}
					}
				}
			}
		}
	}
}
MOTION
Frames: 12
Frame Time: 0.050000
0.000000 0.945260 0.000000 0.400224 0.178764 9.989103 4.871096 -0.452413 -5.688946 0.996340 0.055923 -3.765419 1.627648 9.018943 19.465239 0.000000 0.000000 0.000000 -4.278714 0.668800 -7.467235 -4.539861 0.007741 -5.728972 0.761879 -3.207886 11.347087 0.000000 0.000000 0.000000 5.096214 0.287452 -5.891979 -2.152345 1.024790 -5.671023 -3.584416 2.961338 2.857806 4.334389 -1.955989 -9.514938 0.000000 0.000000 0.000000 -16.661505 4.442325 -4.634749 -53.555975 -3.684044 -4.458296 -6.731840 -16.170032 1.430054 0.000000 0.000000 0.000000 15.595712 -10.713380 -6.239864 61.582750 2.427332 -4.279950 2.355849 18.737509 1.087852 0.000000 0.000000 0.000000 
-0.000105 0.944521 0.000303 0.345533 -0.470064 10.752859 5.007293 -0.452703 -5.673435 0.746162 0.124304 -5.004103 1.954882 9.416204 19.711998 0.000000 0.000000 0.000000 -4.478879 0.751525 -8.636606 -4.215207 0.015829 -5.336611 0.954822 -2.821440 11.094641 0.000000 0.000000 0.000000 6.439443 0.346489 -6.464522 -3.226835 1.442797 -6.301070 -4.169539 3.811378 2.748201 3.990663 -1.478442 -10.955546 0.000000 0.000000 0.000000 -17.444400 5.299341 -5.337423 -52.146333 -3.025277 -4.560470 -7.211739 -16.637628 1.520367 0.000000 0.000000 0.000000 15.255078 -12.658524 -7.091363 62.810000 1.645879 -4.668993 2.314339 18.767920 1.106062 0.000000 0.000000 0.000000 
-0.000299 0.944456 0.000440 0.855788 0.210846 10.532276 4.667513 -0.461810 -5.688779 0.533627 0.129358 -4.787630 1.537328 8.931573 19.632796 0.000000 0.000000 0.000000 -4.994838 0.722407 -8.574644 -4.170681 0.066016 -4.706290 0.534443 -3.413357 10.715178 0.000000 0.000000 0.000000 6.227510 0.320230 -6.257092 -3.214382 1.443208 -6.991973 -4.800205 3.062982 3.199953 4.029039 -1.650313 -10.079410 0.000000 0.000000 0.000000 -16.817822 4.913575 -4.953055 -52.392244 -2.355945 -4.937214 -7.061904 -16.587937 1.506204 0.000000 0.000000 0.000000 16.005548 -11.835917 -6.832267 61.989662 1.114256 -5.001001 2.835790 18.526759 1.158506 0.000000 0.000000 0.000000 
-0.000483 0.944929 0.000454 0.953292 0.429072 10.891896 4.945041 -0.490201 -6.215748 -0.057323 0.161382 -4.636701 1.393571 8.803546 19.820581 0.000000 0.000000 0.000000 -5.162552 0.747913 -9.092250 -4.025517 0.082007 -4.389046 0.408086 -3.652637 10.782957 0.000000 0.000000 0.000000 6.423328 0.325098 -6.394246 -3.460460 1.548319 -6.187221 -4.772103 2.625916 1.713233 3.650851 -1.499264 -9.344472 0.000000 0.000000 0.000000 -17.215348 6.169306 -5.639566 -52.701283 -2.387585 -4.814111 -6.003215 -16.628889 1.353463 0.000000 0.000000 0.000000 14.853700 -12.596941 -7.075807 62.654875 0.493895 -5.181120 3.577074 18.495038 1.235788 0.000000 0.000000 0.000000 
-0.000780 0.945641 0.000362 1.138218 1.091224 10.700757 4.687309 -0.495173 -6.155710 0.213382 0.142872 -4.607203 0.978556 8.367057 19.947666 0.000000 0.000000 0.000000 -5.192661 0.726190 -8.917882 -4.178029 0.121151 -4.061785 0.109402 -4.168746 10.829376 0.000000 0.000000 0.000000 5.999845 0.277671 -5.960835 -2.925010 1.344109 -6.255527 -5.011369 2.195257 1.836194 3.372127 -1.222332 -10.014898 0.000000 0.000000 0.000000 -17.302829 6.073191 -5.615240 -52.950524 -2.516018 -4.790657 -6.238558 -16.691275 1.391602 0.000000 0.000000 0.000000 14.756880 -12.392801 -6.951230 62.613304 0.682540 -5.086409 3.803668 18.019801 1.232173 0.000000 0.000000 0.000000 
-0.001057 0.946139 0.000258 1.240865 1.274855 10.800954 4.676883 -0.503489 -6.268770 0.107493 0.151974 -4.680104 0.830832 8.238852 20.145717 0.000000 0.000000 0.000000 -5.262153 0.721031 -8.892914 -4.194501 0.109755 -4.234467 0.051193 -4.317549 11.016187 0.000000 0.000000 0.000000 5.876593 0.269150 -5.915541 -2.883684 1.330306 -6.367997 -5.032980 2.052542 1.740025 3.445841 -1.293531 -9.857046 0.000000 0.000000 0.000000 -17.672375 6.430669 -5.871539 -52.650449 -2.503587 -4.748659 -6.197552 -16.728026 1.389676 0.000000 0.000000 0.000000 14.540549 -12.324751 -6.884149 62.826163 0.396634 -5.236379 4.082453 18.003769 1.265596 0.000000 0.000000 0.000000 
-0.001287 0.946346 0.000152 1.233419 1.390787 10.687338 4.661489 -0.503558 -6.268324 0.196940 0.140525 -4.513539 0.766702 8.171503 20.151319 0.000000 0.000000 0.000000 -5.093825 0.719227 -8.808377 -4.426126 0.133947 -4.132218 0.008358 -4.393176 11.031333 0.000000 0.000000 0.000000 5.790365 0.256829 -5.773738 -2.812368 1.304043 -6.168297 -5.070157 1.869758 1.560087 3.647877 -1.390245 -10.166468 0.000000 0.000000 0.000000 -17.726188 6.328881 -5.816519 -52.709443 -2.301468 -4.824765 -6.592229 -16.700059 1.445527 0.000000 0.000000 0.000000 14.559939 -12.253921 -6.869488 62.772408 0.162820 -5.345837 4.377934 18.126017 1.311119 0.000000 0.000000 0.000000 
-0.001397 0.946488 0.000086 1.204930 1.515178 10.747319 4.696587 -0.518422 -6.540851 0.234888 0.126930 -4.198850 0.722551 8.124564 20.121304 0.000000 0.000000 0.000000 -5.110977 0.722577 -8.901046 -4.307636 0.133519 -4.045595 -0.046939 -4.493740 11.061183 0.000000 0.000000 0.000000 5.778616 0.254018 -5.768088 -2.760580 1.284409 -6.018863 -5.087512 1.797868 1.173688 3.762938 -1.547700 -9.526965 0.000000 0.000000 0.000000 -17.912916 6.104748 -5.756125 -52.699376 -2.181083 -4.834364 -6.798804 -16.645988 1.467303 0.000000 0.000000 0.000000 14.454119 -12.248576 -6.850506 62.806564 -0.187119 -5.490199 4.701565 18.334540 1.370591 0.000000 0.000000 0.000000 
-0.001515 0.946739 0.000019 1.238989 1.397837 10.640245 4.723888 -0.516385 -6.552170 0.103356 0.126943 -3.947367 0.770286 8.183946 20.173698 0.000000 0.000000 0.000000 -5.077308 0.721071 -8.848092 -4.432748 0.146193 -3.985303 0.014816 -4.396311 11.081486 0.000000 0.000000 0.000000 5.713936 0.252526 -5.721241 -2.669005 1.246918 -6.123621 -5.061572 1.744793 1.082735 3.828295 -1.645984 -9.175856 0.000000 0.000000 0.000000 -17.846306 6.016147 -5.675557 -52.974889 -2.134057 -4.881213 -7.023908 -16.400142 1.479897 0.000000 0.000000 0.000000 14.520492 -12.167848 -6.839553 62.627201 -0.394918 -5.589559 4.880071 18.597768 1.414252 0.000000 0.000000 0.000000 
-0.001649 0.946906 -0.000030 1.277987 1.300602 10.538832 4.776574 -0.514511 -6.570784 -0.074441 0.130857 -3.697177 0.811486 8.230833 20.200442 0.000000 0.000000 0.000000 -5.153197 0.713968 -8.762243 -4.367380 0.141425 -3.984490 0.065142 -4.313338 11.089126 0.000000 0.000000 0.000000 5.676549 0.256962 -5.742751 -2.695448 1.256370 -5.990133 -4.972863 1.680886 0.844059 3.870514 -1.733949 -8.782827 0.000000 0.000000 0.000000 -17.979500 5.826426 -5.587808 -53.094276 -2.186294 -4.849641 -6.725335 -16.344220 1.435522 0.000000 0.000000 0.000000 14.684810 -11.980698 -6.797947 62.502840 -0.659811 -5.712973 4.909537 18.744469 1.424091 0.000000 0.000000 0.000000 
-0.001783 0.946826 -0.000042 1.351606 1.297580 10.492807 4.749007 -0.508645 -6.452754 -0.155118 0.140408 -3.816340 0.794829 8.212078 20.220649 0.000000 0.000000 0.000000 -5.304410 0.706030 -8.714219 -4.226463 0.132583 -3.976163 0.052979 -4.316332 11.027653 0.000000 0.000000 0.000000 5.670251 0.265053 -5.826058 -2.622289 1.227001 -5.845675 -5.035701 1.549203 0.587741 3.870800 -1.792120 -8.386033 0.000000 0.000000 0.000000 -18.179235 5.587121 -5.493374 -53.042081 -2.363274 -4.739132 -6.512984 -16.166405 1.392380 0.000000 0.000000 0.000000 14.656553 -11.793046 -6.717795 62.576392 -0.859525 -5.807891 4.900984 18.551393 1.398652 0.000000 0.000000 0.000000 
-0.001887 0.946775 -0.000050 1.437596 1.321817 10.526798 4.725892 -0.511976 -6.500925 -0.260968 0.147440 -3.806503 0.771959 8.188970 20.237587 0.000000 0.000000 0.000000 -5.385602 0.703278 -8.713895 -4.238186 0.129696 -4.025357 0.031856 -4.347806 11.010894 0.000000 0.000000 0.000000 5.684566 0.280873 -6.013397 -2.604538 1.219972 -5.771991 -5.098654 1.495710 0.296021 3.831077 -1.819118 -7.977022 0.000000 0.000000 0.000000 -18.188616 5.381309 -5.395130 -53.227380 -2.493806 -4.673710 -6.082528 -15.931233 1.311759 0.000000 0.000000 0.000000 14.547780 -11.818292 -6.715546 62.719064 -1.139862 -5.937048 4.890679 18.405088 1.380311 0.000000 0.000000 0.000000 
